solid extruder-spacer
facet normal 0.573576436351322 0.819152044288799 0.0
   outer loop
      vertex 15.0958672586897 8.82470222513824 3.00000000000001
      vertex 15.41 8.6047441116741 0.0
      vertex 15.0958672586897 8.82470222513824 0.0
   endloop
endfacet
facet normal 0.573576436351322 0.819152044288799 0.0
   outer loop
      vertex 15.41 8.6047441116741 0.0
      vertex 15.0958672586897 8.82470222513824 3.00000000000001
      vertex 15.41 8.6047441116741 3.00000000000001
   endloop
endfacet
facet normal 0.422618261740216 0.906307787036876 0.0
   outer loop
      vertex 15.41 8.6047441116741 3.00000000000001
      vertex 15.7575556846838 8.44267623427099 0.0
      vertex 15.41 8.6047441116741 0.0
   endloop
endfacet
facet normal 0.422618261740216 0.906307787036876 0.0
   outer loop
      vertex 15.7575556846838 8.44267623427099 0.0
      vertex 15.41 8.6047441116741 3.00000000000001
      vertex 15.7575556846838 8.44267623427099 3.00000000000001
   endloop
endfacet
facet normal -0.0871557427476874 -0.996194698091743 0.0
   outer loop
      vertex 16.8920259908672 12.6765770566269 3.00000000000001
      vertex 16.5100000000001 12.71 0.0
      vertex 16.8920259908672 12.6765770566269 0.0
   endloop
endfacet
facet normal -0.0871557427476874 -0.996194698091743 0.0
   outer loop
      vertex 16.5100000000001 12.71 0.0
      vertex 16.8920259908672 12.6765770566269 3.00000000000001
      vertex 16.5100000000001 12.71 3.00000000000001
   endloop
endfacet
facet normal 1.0 -2.22044604925031e-016 0.0
   outer loop
      vertex 31.5100000000002 0.0 0.0
      vertex 31.5100000000002 2.51000000000007 3.00000000000001
      vertex 31.5100000000002 0.0 5.0
   endloop
endfacet
facet normal 1.0 -2.22044604925031e-016 0.0
   outer loop
      vertex 31.5100000000002 2.51000000000007 3.00000000000001
      vertex 31.5100000000002 0.0 0.0
      vertex 31.5100000000002 15.51 0.0
   endloop
endfacet
facet normal 1.0 -2.22044604925031e-016 0.0
   outer loop
      vertex 31.5100000000002 2.51000000000007 3.00000000000001
      vertex 31.5100000000002 15.51 0.0
      vertex 31.5100000000002 15.51 3.00000000000001
   endloop
endfacet
facet normal 1.0 -2.22044604925031e-016 0.0
   outer loop
      vertex 31.5100000000002 2.51000000000007 5.0
      vertex 31.5100000000002 0.0 5.0
      vertex 31.5100000000002 2.51000000000007 3.00000000000001
   endloop
endfacet
facet normal -0.573576436351164 -0.819152044288909 0.0
   outer loop
      vertex 17.9241327413106 12.1952977748617 3.00000000000001
      vertex 17.6100000000003 12.4152558883258 0.0
      vertex 17.9241327413106 12.1952977748617 0.0
   endloop
endfacet
facet normal -0.573576436351164 -0.819152044288909 0.0
   outer loop
      vertex 17.6100000000003 12.4152558883258 0.0
      vertex 17.9241327413106 12.1952977748617 3.00000000000001
      vertex 17.6100000000003 12.4152558883258 3.00000000000001
   endloop
endfacet
facet normal -0.258819045102628 0.96592582628904 0.0
   outer loop
      vertex 16.8920259908672 8.34342294337316 3.00000000000001
      vertex 17.2624443153165 8.44267623427108 0.0
      vertex 16.8920259908672 8.34342294337316 0.0
   endloop
endfacet
facet normal -0.258819045102628 0.96592582628904 0.0
   outer loop
      vertex 17.2624443153165 8.44267623427108 0.0
      vertex 16.8920259908672 8.34342294337316 3.00000000000001
      vertex 17.2624443153165 8.44267623427108 3.00000000000001
   endloop
endfacet
facet normal 0.819152044288987 -0.573576436351054 0.0
   outer loop
      vertex 14.8247022251383 11.9241327413103 0.0
      vertex 14.6047441116743 11.6099999999999 3.00000000000001
      vertex 14.6047441116743 11.6099999999999 0.0
   endloop
endfacet
facet normal 0.819152044288987 -0.573576436351054 0.0
   outer loop
      vertex 14.6047441116743 11.6099999999999 3.00000000000001
      vertex 14.8247022251383 11.9241327413103 0.0
      vertex 14.8247022251383 11.9241327413103 3.00000000000001
   endloop
endfacet
facet normal 0.707106781186665 -0.70710678118643 0.0
   outer loop
      vertex 15.0958672586897 12.1952977748618 0.0
      vertex 14.8247022251383 11.9241327413103 3.00000000000001
      vertex 14.8247022251383 11.9241327413103 0.0
   endloop
endfacet
facet normal 0.707106781186665 -0.70710678118643 0.0
   outer loop
      vertex 14.8247022251383 11.9241327413103 3.00000000000001
      vertex 15.0958672586897 12.1952977748618 0.0
      vertex 15.0958672586897 12.1952977748618 3.00000000000001
   endloop
endfacet
facet normal 0.906307787036882 0.422618261740202 0.0
   outer loop
      vertex 14.4426762342713 9.75755568468353 0.0
      vertex 14.6047441116743 9.40999999999995 3.00000000000001
      vertex 14.6047441116743 9.40999999999995 0.0
   endloop
endfacet
facet normal 0.906307787036882 0.422618261740202 0.0
   outer loop
      vertex 14.6047441116743 9.40999999999995 3.00000000000001
      vertex 14.4426762342713 9.75755568468353 0.0
      vertex 14.4426762342713 9.75755568468353 3.00000000000001
   endloop
endfacet
facet normal 0.422618261740602 -0.906307787036696 0.0
   outer loop
      vertex 15.7575556846838 12.577323765729 3.00000000000001
      vertex 15.41 12.4152558883257 0.0
      vertex 15.7575556846838 12.577323765729 0.0
   endloop
endfacet
facet normal 0.422618261740602 -0.906307787036696 0.0
   outer loop
      vertex 15.41 12.4152558883257 0.0
      vertex 15.7575556846838 12.577323765729 3.00000000000001
      vertex 15.41 12.4152558883257 3.00000000000001
   endloop
endfacet
facet normal 0.0871557427476053 -0.99619469809175 0.0
   outer loop
      vertex 16.5100000000001 12.71 3.00000000000001
      vertex 16.1279740091327 12.6765770566269 0.0
      vertex 16.5100000000001 12.71 0.0
   endloop
endfacet
facet normal 0.0871557427476053 -0.99619469809175 0.0
   outer loop
      vertex 16.1279740091327 12.6765770566269 0.0
      vertex 16.5100000000001 12.71 3.00000000000001
      vertex 16.1279740091327 12.6765770566269 3.00000000000001
   endloop
endfacet
facet normal -0.90630778703684 0.422618261740293 0.0
   outer loop
      vertex 18.5773237657294 9.75755568468353 3.00000000000001
      vertex 18.4152558883264 9.41000000000004 0.0
      vertex 18.4152558883264 9.41000000000004 3.00000000000001
   endloop
endfacet
facet normal -0.90630778703684 0.422618261740293 0.0
   outer loop
      vertex 18.4152558883264 9.41000000000004 0.0
      vertex 18.5773237657294 9.75755568468353 3.00000000000001
      vertex 18.5773237657294 9.75755568468353 0.0
   endloop
endfacet
facet normal -0.965925826289039 0.258819045102629 0.0
   outer loop
      vertex 18.6765770566273 10.1279740091328 3.00000000000001
      vertex 18.5773237657294 9.75755568468353 0.0
      vertex 18.5773237657294 9.75755568468353 3.00000000000001
   endloop
endfacet
facet normal -0.965925826289039 0.258819045102629 0.0
   outer loop
      vertex 18.5773237657294 9.75755568468353 0.0
      vertex 18.6765770566273 10.1279740091328 3.00000000000001
      vertex 18.6765770566273 10.1279740091328 0.0
   endloop
endfacet
facet normal -0.996194698091765 0.0871557427474336 0.0
   outer loop
      vertex 18.7100000000004 10.51 3.00000000000001
      vertex 18.6765770566273 10.1279740091328 0.0
      vertex 18.6765770566273 10.1279740091328 3.00000000000001
   endloop
endfacet
facet normal -0.996194698091765 0.0871557427474336 0.0
   outer loop
      vertex 18.6765770566273 10.1279740091328 0.0
      vertex 18.7100000000004 10.51 3.00000000000001
      vertex 18.7100000000004 10.51 0.0
   endloop
endfacet
facet normal 0.707106781186548 0.707106781186547 0.0
   outer loop
      vertex 30.51 16.5100000000001 0.0
      vertex 31.5100000000002 15.51 3.00000000000001
      vertex 31.5100000000002 15.51 0.0
   endloop
endfacet
facet normal 0.707106781186548 0.707106781186547 0.0
   outer loop
      vertex 31.5100000000002 15.51 3.00000000000001
      vertex 30.51 16.5100000000001 0.0
      vertex 30.51 16.5100000000001 3.00000000000001
   endloop
endfacet
facet normal -1.0 2.22044604925031e-016 0.0
   outer loop
      vertex 4.93494134445882e-015 16.51 5.0
      vertex 0.0 5.63993296509579e-015 0.0
      vertex 0.0 5.63993296509579e-015 5.0
   endloop
endfacet
facet normal -1.0 2.22044604925031e-016 0.0
   outer loop
      vertex 0.0 5.63993296509579e-015 0.0
      vertex 4.93494134445882e-015 16.51 5.0
      vertex 4.93494134445882e-015 16.51 0.0
   endloop
endfacet
facet normal 0.0871557427476058 0.99619469809175 0.0
   outer loop
      vertex 16.1279740091327 8.34342294337316 3.00000000000001
      vertex 16.5100000000002 8.31000000000002 0.0
      vertex 16.1279740091327 8.34342294337316 0.0
   endloop
endfacet
facet normal 0.0871557427476058 0.99619469809175 0.0
   outer loop
      vertex 16.5100000000002 8.31000000000002 0.0
      vertex 16.1279740091327 8.34342294337316 3.00000000000001
      vertex 16.5100000000002 8.31000000000002 3.00000000000001
   endloop
endfacet
facet normal -0.0871557427476871 0.996194698091743 0.0
   outer loop
      vertex 16.5100000000002 8.31000000000002 3.00000000000001
      vertex 16.8920259908672 8.34342294337316 0.0
      vertex 16.5100000000002 8.31000000000002 0.0
   endloop
endfacet
facet normal -0.0871557427476871 0.996194698091743 0.0
   outer loop
      vertex 16.8920259908672 8.34342294337316 0.0
      vertex 16.5100000000002 8.31000000000002 3.00000000000001
      vertex 16.8920259908672 8.34342294337316 3.00000000000001
   endloop
endfacet
facet normal -0.965925826289024 -0.258819045102687 0.0
   outer loop
      vertex 18.5773237657294 11.2624443153164 3.00000000000001
      vertex 18.6765770566273 10.8920259908672 0.0
      vertex 18.6765770566273 10.8920259908672 3.00000000000001
   endloop
endfacet
facet normal -0.965925826289024 -0.258819045102687 0.0
   outer loop
      vertex 18.6765770566273 10.8920259908672 0.0
      vertex 18.5773237657294 11.2624443153164 3.00000000000001
      vertex 18.5773237657294 11.2624443153164 0.0
   endloop
endfacet
facet normal 0.258819045102645 0.965925826289035 0.0
   outer loop
      vertex 15.7575556846838 8.44267623427099 3.00000000000001
      vertex 16.1279740091327 8.34342294337316 0.0
      vertex 15.7575556846838 8.44267623427099 0.0
   endloop
endfacet
facet normal 0.258819045102645 0.965925826289035 0.0
   outer loop
      vertex 16.1279740091327 8.34342294337316 0.0
      vertex 15.7575556846838 8.44267623427099 3.00000000000001
      vertex 16.1279740091327 8.34342294337316 3.00000000000001
   endloop
endfacet
facet normal -5.77315972805081e-015 1.0 1.17059923950853e-015
   outer loop
      vertex 4.93494134445882e-015 16.51 0.0
      vertex 2.51000000000008 16.51 3.00000000000001
      vertex 30.51 16.5100000000001 0.0
   endloop
endfacet
facet normal -5.77315972805081e-015 1.0 1.17059923950853e-015
   outer loop
      vertex 2.51000000000008 16.51 3.00000000000001
      vertex 4.93494134445882e-015 16.51 0.0
      vertex 4.93494134445882e-015 16.51 5.0
   endloop
endfacet
facet normal -5.77315972805081e-015 1.0 1.17059923950853e-015
   outer loop
      vertex 2.51000000000008 16.51 3.00000000000001
      vertex 4.93494134445882e-015 16.51 5.0
      vertex 2.51000000000008 16.51 5.0
   endloop
endfacet
facet normal -5.77315972805081e-015 1.0 1.17059923950853e-015
   outer loop
      vertex 30.51 16.5100000000001 3.00000000000001
      vertex 30.51 16.5100000000001 0.0
      vertex 2.51000000000008 16.51 3.00000000000001
   endloop
endfacet
facet normal 0.573576436350848 -0.819152044289131 0.0
   outer loop
      vertex 15.41 12.4152558883257 3.00000000000001
      vertex 15.0958672586897 12.1952977748618 0.0
      vertex 15.41 12.4152558883257 0.0
   endloop
endfacet
facet normal 0.573576436350848 -0.819152044289131 0.0
   outer loop
      vertex 15.0958672586897 12.1952977748618 0.0
      vertex 15.41 12.4152558883257 3.00000000000001
      vertex 15.0958672586897 12.1952977748618 3.00000000000001
   endloop
endfacet
facet normal -0.819152044288622 -0.573576436351574 0.0
   outer loop
      vertex 18.195297774862 11.9241327413105 3.00000000000001
      vertex 18.4152558883264 11.61 0.0
      vertex 18.4152558883264 11.61 3.00000000000001
   endloop
endfacet
facet normal -0.819152044288622 -0.573576436351574 0.0
   outer loop
      vertex 18.4152558883264 11.61 0.0
      vertex 18.195297774862 11.9241327413105 3.00000000000001
      vertex 18.195297774862 11.9241327413105 0.0
   endloop
endfacet
facet normal -0.906307787036882 -0.422618261740202 0.0
   outer loop
      vertex 18.4152558883264 11.61 3.00000000000001
      vertex 18.5773237657294 11.2624443153164 0.0
      vertex 18.5773237657294 11.2624443153164 3.00000000000001
   endloop
endfacet
facet normal -0.906307787036882 -0.422618261740202 0.0
   outer loop
      vertex 18.5773237657294 11.2624443153164 0.0
      vertex 18.4152558883264 11.61 3.00000000000001
      vertex 18.4152558883264 11.61 0.0
   endloop
endfacet
facet normal 0.0 0.0 1.0
   outer loop
      vertex 0.0 5.63993296509579e-015 5.0
      vertex 2.51000000000008 2.51000000000008 5.0
      vertex 4.93494134445882e-015 16.51 5.0
   endloop
endfacet
facet normal 0.0 0.0 1.0
   outer loop
      vertex 2.51000000000008 2.51000000000008 5.0
      vertex 0.0 5.63993296509579e-015 5.0
      vertex 31.5100000000002 0.0 5.0
   endloop
endfacet
facet normal 0.0 0.0 1.0
   outer loop
      vertex 2.51000000000008 2.51000000000008 5.0
      vertex 31.5100000000002 0.0 5.0
      vertex 31.5100000000002 2.51000000000007 5.0
   endloop
endfacet
facet normal 0.0 0.0 1.0
   outer loop
      vertex 2.51000000000008 16.51 5.0
      vertex 4.93494134445882e-015 16.51 5.0
      vertex 2.51000000000008 2.51000000000008 5.0
   endloop
endfacet
facet normal -0.996194698091767 -0.0871557427474126 0.0
   outer loop
      vertex 18.6765770566273 10.8920259908672 3.00000000000001
      vertex 18.7100000000004 10.51 0.0
      vertex 18.7100000000004 10.51 3.00000000000001
   endloop
endfacet
facet normal -0.996194698091767 -0.0871557427474126 0.0
   outer loop
      vertex 18.7100000000004 10.51 0.0
      vertex 18.6765770566273 10.8920259908672 3.00000000000001
      vertex 18.6765770566273 10.8920259908672 0.0
   endloop
endfacet
facet normal 2.22044604925031e-016 1.0 0.0
   outer loop
      vertex 2.51000000000008 2.51000000000008 5.0
      vertex 31.5100000000002 2.51000000000007 3.00000000000001
      vertex 2.51000000000008 2.51000000000008 3.00000000000001
   endloop
endfacet
facet normal 2.22044604925031e-016 1.0 0.0
   outer loop
      vertex 31.5100000000002 2.51000000000007 3.00000000000001
      vertex 2.51000000000008 2.51000000000008 5.0
      vertex 31.5100000000002 2.51000000000007 5.0
   endloop
endfacet
facet normal -0.422618261740409 -0.906307787036785 0.0
   outer loop
      vertex 17.6100000000003 12.4152558883258 3.00000000000001
      vertex 17.2624443153165 12.577323765729 0.0
      vertex 17.6100000000003 12.4152558883258 0.0
   endloop
endfacet
facet normal -0.422618261740409 -0.906307787036785 0.0
   outer loop
      vertex 17.2624443153165 12.577323765729 0.0
      vertex 17.6100000000003 12.4152558883258 3.00000000000001
      vertex 17.2624443153165 12.577323765729 3.00000000000001
   endloop
endfacet
facet normal 0.81915204428891 0.573576436351164 0.0
   outer loop
      vertex 14.6047441116743 9.40999999999995 0.0
      vertex 14.8247022251383 9.0958672586896 3.00000000000001
      vertex 14.8247022251383 9.0958672586896 0.0
   endloop
endfacet
facet normal 0.81915204428891 0.573576436351164 0.0
   outer loop
      vertex 14.8247022251383 9.0958672586896 3.00000000000001
      vertex 14.6047441116743 9.40999999999995 0.0
      vertex 14.6047441116743 9.40999999999995 3.00000000000001
   endloop
endfacet
facet normal 0.707106781186548 0.707106781186547 0.0
   outer loop
      vertex 14.8247022251383 9.0958672586896 0.0
      vertex 15.0958672586897 8.82470222513824 3.00000000000001
      vertex 15.0958672586897 8.82470222513824 0.0
   endloop
endfacet
facet normal 0.707106781186548 0.707106781186547 0.0
   outer loop
      vertex 15.0958672586897 8.82470222513824 3.00000000000001
      vertex 14.8247022251383 9.0958672586896 0.0
      vertex 14.8247022251383 9.0958672586896 3.00000000000001
   endloop
endfacet
facet normal -0.422618261740215 0.906307787036876 0.0
   outer loop
      vertex 17.2624443153165 8.44267623427108 3.00000000000001
      vertex 17.6100000000003 8.60474411167419 0.0
      vertex 17.2624443153165 8.44267623427108 0.0
   endloop
endfacet
facet normal -0.422618261740215 0.906307787036876 0.0
   outer loop
      vertex 17.6100000000003 8.60474411167419 0.0
      vertex 17.2624443153165 8.44267623427108 3.00000000000001
      vertex 17.6100000000003 8.60474411167419 3.00000000000001
   endloop
endfacet
facet normal -0.573576436351164 0.81915204428891 0.0
   outer loop
      vertex 17.6100000000003 8.60474411167419 3.00000000000001
      vertex 17.9241327413106 8.82470222513825 0.0
      vertex 17.6100000000003 8.60474411167419 0.0
   endloop
endfacet
facet normal -0.573576436351164 0.81915204428891 0.0
   outer loop
      vertex 17.9241327413106 8.82470222513825 0.0
      vertex 17.6100000000003 8.60474411167419 3.00000000000001
      vertex 17.9241327413106 8.82470222513825 3.00000000000001
   endloop
endfacet
facet normal 0.0 0.0 -1.0
   outer loop
      vertex 4.93494134445882e-015 16.51 0.0
      vertex 14.3434229433733 10.8920259908671 0.0
      vertex 14.3099999999999 10.5099999999999 0.0
   endloop
endfacet
facet normal 0.0 0.0 -1.0
   outer loop
      vertex 14.3434229433733 10.8920259908671 0.0
      vertex 4.93494134445882e-015 16.51 0.0
      vertex 14.4426762342712 11.2624443153164 0.0
   endloop
endfacet
facet normal 0.0 0.0 -1.0
   outer loop
      vertex 14.4426762342712 11.2624443153164 0.0
      vertex 4.93494134445882e-015 16.51 0.0
      vertex 14.6047441116743 11.6099999999999 0.0
   endloop
endfacet
facet normal 0.0 0.0 -1.0
   outer loop
      vertex 14.6047441116743 11.6099999999999 0.0
      vertex 4.93494134445882e-015 16.51 0.0
      vertex 14.8247022251383 11.9241327413103 0.0
   endloop
endfacet
facet normal 0.0 0.0 -1.0
   outer loop
      vertex 14.8247022251383 11.9241327413103 0.0
      vertex 4.93494134445882e-015 16.51 0.0
      vertex 15.0958672586897 12.1952977748618 0.0
   endloop
endfacet
facet normal 0.0 0.0 -1.0
   outer loop
      vertex 15.0958672586897 12.1952977748618 0.0
      vertex 4.93494134445882e-015 16.51 0.0
      vertex 15.41 12.4152558883257 0.0
   endloop
endfacet
facet normal 0.0 0.0 -1.0
   outer loop
      vertex 15.41 12.4152558883257 0.0
      vertex 4.93494134445882e-015 16.51 0.0
      vertex 15.7575556846838 12.577323765729 0.0
   endloop
endfacet
facet normal 0.0 0.0 -1.0
   outer loop
      vertex 15.7575556846838 12.577323765729 0.0
      vertex 4.93494134445882e-015 16.51 0.0
      vertex 16.1279740091327 12.6765770566269 0.0
   endloop
endfacet
facet normal 0.0 0.0 -1.0
   outer loop
      vertex 16.1279740091327 12.6765770566269 0.0
      vertex 4.93494134445882e-015 16.51 0.0
      vertex 30.51 16.5100000000001 0.0
   endloop
endfacet
facet normal 0.0 0.0 -1.0
   outer loop
      vertex 16.1279740091327 12.6765770566269 0.0
      vertex 30.51 16.5100000000001 0.0
      vertex 16.5100000000001 12.71 0.0
   endloop
endfacet
facet normal 0.0 0.0 -1.0
   outer loop
      vertex 16.5100000000001 12.71 0.0
      vertex 30.51 16.5100000000001 0.0
      vertex 16.8920259908672 12.6765770566269 0.0
   endloop
endfacet
facet normal 0.0 0.0 -1.0
   outer loop
      vertex 16.8920259908672 12.6765770566269 0.0
      vertex 30.51 16.5100000000001 0.0
      vertex 17.2624443153165 12.577323765729 0.0
   endloop
endfacet
facet normal 0.0 0.0 -1.0
   outer loop
      vertex 17.2624443153165 12.577323765729 0.0
      vertex 30.51 16.5100000000001 0.0
      vertex 17.6100000000003 12.4152558883258 0.0
   endloop
endfacet
facet normal 0.0 0.0 -1.0
   outer loop
      vertex 17.6100000000003 12.4152558883258 0.0
      vertex 30.51 16.5100000000001 0.0
      vertex 17.9241327413106 12.1952977748617 0.0
   endloop
endfacet
facet normal 0.0 0.0 -1.0
   outer loop
      vertex 17.9241327413106 12.1952977748617 0.0
      vertex 30.51 16.5100000000001 0.0
      vertex 18.195297774862 11.9241327413105 0.0
   endloop
endfacet
facet normal 0.0 0.0 -1.0
   outer loop
      vertex 18.195297774862 11.9241327413105 0.0
      vertex 30.51 16.5100000000001 0.0
      vertex 18.4152558883264 11.61 0.0
   endloop
endfacet
facet normal 0.0 0.0 -1.0
   outer loop
      vertex 18.4152558883264 11.61 0.0
      vertex 30.51 16.5100000000001 0.0
      vertex 18.5773237657294 11.2624443153164 0.0
   endloop
endfacet
facet normal 0.0 0.0 -1.0
   outer loop
      vertex 18.5773237657294 11.2624443153164 0.0
      vertex 30.51 16.5100000000001 0.0
      vertex 18.6765770566273 10.8920259908672 0.0
   endloop
endfacet
facet normal 0.0 0.0 -1.0
   outer loop
      vertex 18.6765770566273 10.8920259908672 0.0
      vertex 30.51 16.5100000000001 0.0
      vertex 18.7100000000004 10.51 0.0
   endloop
endfacet
facet normal 0.0 0.0 -1.0
   outer loop
      vertex 4.93494134445882e-015 16.51 0.0
      vertex 31.5100000000002 0.0 0.0
      vertex 0.0 5.63993296509579e-015 0.0
   endloop
endfacet
facet normal 0.0 0.0 -1.0
   outer loop
      vertex 31.5100000000002 0.0 0.0
      vertex 4.93494134445882e-015 16.51 0.0
      vertex 15.41 8.6047441116741 0.0
   endloop
endfacet
facet normal 0.0 0.0 -1.0
   outer loop
      vertex 15.41 8.6047441116741 0.0
      vertex 4.93494134445882e-015 16.51 0.0
      vertex 15.0958672586897 8.82470222513824 0.0
   endloop
endfacet
facet normal 0.0 0.0 -1.0
   outer loop
      vertex 15.0958672586897 8.82470222513824 0.0
      vertex 4.93494134445882e-015 16.51 0.0
      vertex 14.8247022251383 9.0958672586896 0.0
   endloop
endfacet
facet normal 0.0 0.0 -1.0
   outer loop
      vertex 14.8247022251383 9.0958672586896 0.0
      vertex 4.93494134445882e-015 16.51 0.0
      vertex 14.6047441116743 9.40999999999995 0.0
   endloop
endfacet
facet normal 0.0 0.0 -1.0
   outer loop
      vertex 14.6047441116743 9.40999999999995 0.0
      vertex 4.93494134445882e-015 16.51 0.0
      vertex 14.4426762342713 9.75755568468353 0.0
   endloop
endfacet
facet normal 0.0 0.0 -1.0
   outer loop
      vertex 14.4426762342713 9.75755568468353 0.0
      vertex 4.93494134445882e-015 16.51 0.0
      vertex 14.3434229433733 10.1279740091328 0.0
   endloop
endfacet
facet normal 0.0 0.0 -1.0
   outer loop
      vertex 14.3434229433733 10.1279740091328 0.0
      vertex 4.93494134445882e-015 16.51 0.0
      vertex 14.3099999999999 10.5099999999999 0.0
   endloop
endfacet
facet normal 0.0 0.0 -1.0
   outer loop
      vertex 31.5100000000002 0.0 0.0
      vertex 15.41 8.6047441116741 0.0
      vertex 15.7575556846838 8.44267623427099 0.0
   endloop
endfacet
facet normal 0.0 0.0 -1.0
   outer loop
      vertex 31.5100000000002 0.0 0.0
      vertex 15.7575556846838 8.44267623427099 0.0
      vertex 16.1279740091327 8.34342294337316 0.0
   endloop
endfacet
facet normal 0.0 0.0 -1.0
   outer loop
      vertex 31.5100000000002 0.0 0.0
      vertex 16.1279740091327 8.34342294337316 0.0
      vertex 16.5100000000002 8.31000000000002 0.0
   endloop
endfacet
facet normal 0.0 0.0 -1.0
   outer loop
      vertex 31.5100000000002 0.0 0.0
      vertex 16.5100000000002 8.31000000000002 0.0
      vertex 16.8920259908672 8.34342294337316 0.0
   endloop
endfacet
facet normal 0.0 0.0 -1.0
   outer loop
      vertex 31.5100000000002 0.0 0.0
      vertex 16.8920259908672 8.34342294337316 0.0
      vertex 17.2624443153165 8.44267623427108 0.0
   endloop
endfacet
facet normal 0.0 0.0 -1.0
   outer loop
      vertex 31.5100000000002 0.0 0.0
      vertex 17.2624443153165 8.44267623427108 0.0
      vertex 17.6100000000003 8.60474411167419 0.0
   endloop
endfacet
facet normal 0.0 0.0 -1.0
   outer loop
      vertex 31.5100000000002 0.0 0.0
      vertex 17.6100000000003 8.60474411167419 0.0
      vertex 17.9241327413106 8.82470222513825 0.0
   endloop
endfacet
facet normal 0.0 0.0 -1.0
   outer loop
      vertex 31.5100000000002 0.0 0.0
      vertex 17.9241327413106 8.82470222513825 0.0
      vertex 18.195297774862 9.09586725868952 0.0
   endloop
endfacet
facet normal 0.0 0.0 -1.0
   outer loop
      vertex 31.5100000000002 0.0 0.0
      vertex 18.195297774862 9.09586725868952 0.0
      vertex 18.4152558883264 9.41000000000004 0.0
   endloop
endfacet
facet normal 0.0 0.0 -1.0
   outer loop
      vertex 31.5100000000002 0.0 0.0
      vertex 18.4152558883264 9.41000000000004 0.0
      vertex 18.5773237657294 9.75755568468353 0.0
   endloop
endfacet
facet normal 0.0 0.0 -1.0
   outer loop
      vertex 31.5100000000002 0.0 0.0
      vertex 18.5773237657294 9.75755568468353 0.0
      vertex 18.6765770566273 10.1279740091328 0.0
   endloop
endfacet
facet normal 0.0 0.0 -1.0
   outer loop
      vertex 31.5100000000002 0.0 0.0
      vertex 18.6765770566273 10.1279740091328 0.0
      vertex 18.7100000000004 10.51 0.0
   endloop
endfacet
facet normal 0.0 0.0 -1.0
   outer loop
      vertex 31.5100000000002 0.0 0.0
      vertex 18.7100000000004 10.51 0.0
      vertex 30.51 16.5100000000001 0.0
   endloop
endfacet
facet normal 0.0 0.0 -1.0
   outer loop
      vertex 31.5100000000002 0.0 0.0
      vertex 30.51 16.5100000000001 0.0
      vertex 31.5100000000002 15.51 0.0
   endloop
endfacet
facet normal 0.0 0.0 1.0
   outer loop
      vertex 2.51000000000008 2.51000000000008 3.00000000000001
      vertex 15.41 8.6047441116741 3.00000000000001
      vertex 2.51000000000008 16.51 3.00000000000001
   endloop
endfacet
facet normal 0.0 0.0 1.0
   outer loop
      vertex 15.41 8.6047441116741 3.00000000000001
      vertex 2.51000000000008 2.51000000000008 3.00000000000001
      vertex 15.7575556846838 8.44267623427099 3.00000000000001
   endloop
endfacet
facet normal 0.0 0.0 1.0
   outer loop
      vertex 15.7575556846838 8.44267623427099 3.00000000000001
      vertex 2.51000000000008 2.51000000000008 3.00000000000001
      vertex 31.5100000000002 2.51000000000007 3.00000000000001
   endloop
endfacet
facet normal 0.0 0.0 1.0
   outer loop
      vertex 2.51000000000008 16.51 3.00000000000001
      vertex 15.41 8.6047441116741 3.00000000000001
      vertex 15.0958672586897 8.82470222513824 3.00000000000001
   endloop
endfacet
facet normal 0.0 0.0 1.0
   outer loop
      vertex 2.51000000000008 16.51 3.00000000000001
      vertex 15.0958672586897 8.82470222513824 3.00000000000001
      vertex 14.8247022251383 9.0958672586896 3.00000000000001
   endloop
endfacet
facet normal 0.0 0.0 1.0
   outer loop
      vertex 2.51000000000008 16.51 3.00000000000001
      vertex 14.8247022251383 9.0958672586896 3.00000000000001
      vertex 14.6047441116743 9.40999999999995 3.00000000000001
   endloop
endfacet
facet normal 0.0 0.0 1.0
   outer loop
      vertex 2.51000000000008 16.51 3.00000000000001
      vertex 14.6047441116743 9.40999999999995 3.00000000000001
      vertex 14.4426762342713 9.75755568468353 3.00000000000001
   endloop
endfacet
facet normal 0.0 0.0 1.0
   outer loop
      vertex 2.51000000000008 16.51 3.00000000000001
      vertex 14.4426762342713 9.75755568468353 3.00000000000001
      vertex 14.3434229433733 10.1279740091328 3.00000000000001
   endloop
endfacet
facet normal 0.0 0.0 1.0
   outer loop
      vertex 2.51000000000008 16.51 3.00000000000001
      vertex 14.3434229433733 10.1279740091328 3.00000000000001
      vertex 14.3099999999999 10.5099999999999 3.00000000000001
   endloop
endfacet
facet normal 0.0 0.0 1.0
   outer loop
      vertex 15.7575556846838 8.44267623427099 3.00000000000001
      vertex 31.5100000000002 2.51000000000007 3.00000000000001
      vertex 16.1279740091327 8.34342294337316 3.00000000000001
   endloop
endfacet
facet normal 0.0 0.0 1.0
   outer loop
      vertex 16.1279740091327 8.34342294337316 3.00000000000001
      vertex 31.5100000000002 2.51000000000007 3.00000000000001
      vertex 16.5100000000002 8.31000000000002 3.00000000000001
   endloop
endfacet
facet normal 0.0 0.0 1.0
   outer loop
      vertex 16.5100000000002 8.31000000000002 3.00000000000001
      vertex 31.5100000000002 2.51000000000007 3.00000000000001
      vertex 16.8920259908672 8.34342294337316 3.00000000000001
   endloop
endfacet
facet normal 0.0 0.0 1.0
   outer loop
      vertex 16.8920259908672 8.34342294337316 3.00000000000001
      vertex 31.5100000000002 2.51000000000007 3.00000000000001
      vertex 17.2624443153165 8.44267623427108 3.00000000000001
   endloop
endfacet
facet normal 0.0 0.0 1.0
   outer loop
      vertex 17.2624443153165 8.44267623427108 3.00000000000001
      vertex 31.5100000000002 2.51000000000007 3.00000000000001
      vertex 17.6100000000003 8.60474411167419 3.00000000000001
   endloop
endfacet
facet normal 0.0 0.0 1.0
   outer loop
      vertex 17.6100000000003 8.60474411167419 3.00000000000001
      vertex 31.5100000000002 2.51000000000007 3.00000000000001
      vertex 17.9241327413106 8.82470222513825 3.00000000000001
   endloop
endfacet
facet normal 0.0 0.0 1.0
   outer loop
      vertex 17.9241327413106 8.82470222513825 3.00000000000001
      vertex 31.5100000000002 2.51000000000007 3.00000000000001
      vertex 18.195297774862 9.09586725868952 3.00000000000001
   endloop
endfacet
facet normal 0.0 0.0 1.0
   outer loop
      vertex 18.195297774862 9.09586725868952 3.00000000000001
      vertex 31.5100000000002 2.51000000000007 3.00000000000001
      vertex 18.4152558883264 9.41000000000004 3.00000000000001
   endloop
endfacet
facet normal 0.0 0.0 1.0
   outer loop
      vertex 18.4152558883264 9.41000000000004 3.00000000000001
      vertex 31.5100000000002 2.51000000000007 3.00000000000001
      vertex 18.5773237657294 9.75755568468353 3.00000000000001
   endloop
endfacet
facet normal 0.0 0.0 1.0
   outer loop
      vertex 18.5773237657294 9.75755568468353 3.00000000000001
      vertex 31.5100000000002 2.51000000000007 3.00000000000001
      vertex 18.6765770566273 10.1279740091328 3.00000000000001
   endloop
endfacet
facet normal 0.0 0.0 1.0
   outer loop
      vertex 18.6765770566273 10.1279740091328 3.00000000000001
      vertex 31.5100000000002 2.51000000000007 3.00000000000001
      vertex 18.7100000000004 10.51 3.00000000000001
   endloop
endfacet
facet normal 0.0 0.0 1.0
   outer loop
      vertex 18.7100000000004 10.51 3.00000000000001
      vertex 31.5100000000002 2.51000000000007 3.00000000000001
      vertex 30.51 16.5100000000001 3.00000000000001
   endloop
endfacet
facet normal 0.0 0.0 1.0
   outer loop
      vertex 30.51 16.5100000000001 3.00000000000001
      vertex 31.5100000000002 2.51000000000007 3.00000000000001
      vertex 31.5100000000002 15.51 3.00000000000001
   endloop
endfacet
facet normal 0.0 0.0 1.0
   outer loop
      vertex 2.51000000000008 16.51 3.00000000000001
      vertex 16.1279740091327 12.6765770566269 3.00000000000001
      vertex 30.51 16.5100000000001 3.00000000000001
   endloop
endfacet
facet normal 0.0 0.0 1.0
   outer loop
      vertex 16.1279740091327 12.6765770566269 3.00000000000001
      vertex 2.51000000000008 16.51 3.00000000000001
      vertex 15.7575556846838 12.577323765729 3.00000000000001
   endloop
endfacet
facet normal 0.0 0.0 1.0
   outer loop
      vertex 15.7575556846838 12.577323765729 3.00000000000001
      vertex 2.51000000000008 16.51 3.00000000000001
      vertex 15.41 12.4152558883257 3.00000000000001
   endloop
endfacet
facet normal 0.0 0.0 1.0
   outer loop
      vertex 15.41 12.4152558883257 3.00000000000001
      vertex 2.51000000000008 16.51 3.00000000000001
      vertex 15.0958672586897 12.1952977748618 3.00000000000001
   endloop
endfacet
facet normal 0.0 0.0 1.0
   outer loop
      vertex 15.0958672586897 12.1952977748618 3.00000000000001
      vertex 2.51000000000008 16.51 3.00000000000001
      vertex 14.8247022251383 11.9241327413103 3.00000000000001
   endloop
endfacet
facet normal 0.0 0.0 1.0
   outer loop
      vertex 14.8247022251383 11.9241327413103 3.00000000000001
      vertex 2.51000000000008 16.51 3.00000000000001
      vertex 14.6047441116743 11.6099999999999 3.00000000000001
   endloop
endfacet
facet normal 0.0 0.0 1.0
   outer loop
      vertex 14.6047441116743 11.6099999999999 3.00000000000001
      vertex 2.51000000000008 16.51 3.00000000000001
      vertex 14.4426762342712 11.2624443153164 3.00000000000001
   endloop
endfacet
facet normal 0.0 0.0 1.0
   outer loop
      vertex 14.4426762342712 11.2624443153164 3.00000000000001
      vertex 2.51000000000008 16.51 3.00000000000001
      vertex 14.3434229433733 10.8920259908671 3.00000000000001
   endloop
endfacet
facet normal 0.0 0.0 1.0
   outer loop
      vertex 14.3434229433733 10.8920259908671 3.00000000000001
      vertex 2.51000000000008 16.51 3.00000000000001
      vertex 14.3099999999999 10.5099999999999 3.00000000000001
   endloop
endfacet
facet normal 0.0 0.0 1.0
   outer loop
      vertex 30.51 16.5100000000001 3.00000000000001
      vertex 16.1279740091327 12.6765770566269 3.00000000000001
      vertex 16.5100000000001 12.71 3.00000000000001
   endloop
endfacet
facet normal 0.0 0.0 1.0
   outer loop
      vertex 30.51 16.5100000000001 3.00000000000001
      vertex 16.5100000000001 12.71 3.00000000000001
      vertex 16.8920259908672 12.6765770566269 3.00000000000001
   endloop
endfacet
facet normal 0.0 0.0 1.0
   outer loop
      vertex 30.51 16.5100000000001 3.00000000000001
      vertex 16.8920259908672 12.6765770566269 3.00000000000001
      vertex 17.2624443153165 12.577323765729 3.00000000000001
   endloop
endfacet
facet normal 0.0 0.0 1.0
   outer loop
      vertex 30.51 16.5100000000001 3.00000000000001
      vertex 17.2624443153165 12.577323765729 3.00000000000001
      vertex 17.6100000000003 12.4152558883258 3.00000000000001
   endloop
endfacet
facet normal 0.0 0.0 1.0
   outer loop
      vertex 30.51 16.5100000000001 3.00000000000001
      vertex 17.6100000000003 12.4152558883258 3.00000000000001
      vertex 17.9241327413106 12.1952977748617 3.00000000000001
   endloop
endfacet
facet normal 0.0 0.0 1.0
   outer loop
      vertex 30.51 16.5100000000001 3.00000000000001
      vertex 17.9241327413106 12.1952977748617 3.00000000000001
      vertex 18.195297774862 11.9241327413105 3.00000000000001
   endloop
endfacet
facet normal 0.0 0.0 1.0
   outer loop
      vertex 30.51 16.5100000000001 3.00000000000001
      vertex 18.195297774862 11.9241327413105 3.00000000000001
      vertex 18.4152558883264 11.61 3.00000000000001
   endloop
endfacet
facet normal 0.0 0.0 1.0
   outer loop
      vertex 30.51 16.5100000000001 3.00000000000001
      vertex 18.4152558883264 11.61 3.00000000000001
      vertex 18.5773237657294 11.2624443153164 3.00000000000001
   endloop
endfacet
facet normal 0.0 0.0 1.0
   outer loop
      vertex 30.51 16.5100000000001 3.00000000000001
      vertex 18.5773237657294 11.2624443153164 3.00000000000001
      vertex 18.6765770566273 10.8920259908672 3.00000000000001
   endloop
endfacet
facet normal 0.0 0.0 1.0
   outer loop
      vertex 30.51 16.5100000000001 3.00000000000001
      vertex 18.6765770566273 10.8920259908672 3.00000000000001
      vertex 18.7100000000004 10.51 3.00000000000001
   endloop
endfacet
facet normal 0.965925826289039 -0.258819045102629 0.0
   outer loop
      vertex 14.4426762342712 11.2624443153164 0.0
      vertex 14.3434229433733 10.8920259908671 3.00000000000001
      vertex 14.3434229433733 10.8920259908671 0.0
   endloop
endfacet
facet normal 0.965925826289039 -0.258819045102629 0.0
   outer loop
      vertex 14.3434229433733 10.8920259908671 3.00000000000001
      vertex 14.4426762342712 11.2624443153164 0.0
      vertex 14.4426762342712 11.2624443153164 3.00000000000001
   endloop
endfacet
facet normal 0.90630778703684 -0.422618261740293 0.0
   outer loop
      vertex 14.6047441116743 11.6099999999999 0.0
      vertex 14.4426762342712 11.2624443153164 3.00000000000001
      vertex 14.4426762342712 11.2624443153164 0.0
   endloop
endfacet
facet normal 0.90630778703684 -0.422618261740293 0.0
   outer loop
      vertex 14.4426762342712 11.2624443153164 3.00000000000001
      vertex 14.6047441116743 11.6099999999999 0.0
      vertex 14.6047441116743 11.6099999999999 3.00000000000001
   endloop
endfacet
facet normal -0.70710678118643 0.707106781186665 0.0
   outer loop
      vertex 17.9241327413106 8.82470222513825 3.00000000000001
      vertex 18.195297774862 9.09586725868952 0.0
      vertex 17.9241327413106 8.82470222513825 0.0
   endloop
endfacet
facet normal -0.70710678118643 0.707106781186665 0.0
   outer loop
      vertex 18.195297774862 9.09586725868952 0.0
      vertex 17.9241327413106 8.82470222513825 3.00000000000001
      vertex 18.195297774862 9.09586725868952 3.00000000000001
   endloop
endfacet
facet normal -2.22044604925031e-016 -1.0 0.0
   outer loop
      vertex 31.5100000000002 0.0 5.0
      vertex 0.0 5.63993296509579e-015 0.0
      vertex 31.5100000000002 0.0 0.0
   endloop
endfacet
facet normal -2.22044604925031e-016 -1.0 0.0
   outer loop
      vertex 0.0 5.63993296509579e-015 0.0
      vertex 31.5100000000002 0.0 5.0
      vertex 0.0 5.63993296509579e-015 5.0
   endloop
endfacet
facet normal 1.0 -2.22044604925031e-016 0.0
   outer loop
      vertex 2.51000000000008 16.51 3.00000000000001
      vertex 2.51000000000008 2.51000000000008 5.0
      vertex 2.51000000000008 2.51000000000008 3.00000000000001
   endloop
endfacet
facet normal 1.0 -2.22044604925031e-016 0.0
   outer loop
      vertex 2.51000000000008 2.51000000000008 5.0
      vertex 2.51000000000008 16.51 3.00000000000001
      vertex 2.51000000000008 16.51 5.0
   endloop
endfacet
facet normal -0.707106781186312 -0.707106781186783 0.0
   outer loop
      vertex 18.195297774862 11.9241327413105 3.00000000000001
      vertex 17.9241327413106 12.1952977748617 0.0
      vertex 18.195297774862 11.9241327413105 0.0
   endloop
endfacet
facet normal -0.707106781186312 -0.707106781186783 0.0
   outer loop
      vertex 17.9241327413106 12.1952977748617 0.0
      vertex 18.195297774862 11.9241327413105 3.00000000000001
      vertex 17.9241327413106 12.1952977748617 3.00000000000001
   endloop
endfacet
facet normal -0.819152044288622 0.573576436351575 0.0
   outer loop
      vertex 18.4152558883264 9.41000000000004 3.00000000000001
      vertex 18.195297774862 9.09586725868952 0.0
      vertex 18.195297774862 9.09586725868952 3.00000000000001
   endloop
endfacet
facet normal -0.819152044288622 0.573576436351575 0.0
   outer loop
      vertex 18.195297774862 9.09586725868952 0.0
      vertex 18.4152558883264 9.41000000000004 3.00000000000001
      vertex 18.4152558883264 9.41000000000004 0.0
   endloop
endfacet
facet normal -0.258819045102629 -0.965925826289039 0.0
   outer loop
      vertex 17.2624443153165 12.577323765729 3.00000000000001
      vertex 16.8920259908672 12.6765770566269 0.0
      vertex 17.2624443153165 12.577323765729 0.0
   endloop
endfacet
facet normal -0.258819045102629 -0.965925826289039 0.0
   outer loop
      vertex 16.8920259908672 12.6765770566269 0.0
      vertex 17.2624443153165 12.577323765729 3.00000000000001
      vertex 16.8920259908672 12.6765770566269 3.00000000000001
   endloop
endfacet
facet normal 0.258819045102863 -0.965925826288977 0.0
   outer loop
      vertex 16.1279740091327 12.6765770566269 3.00000000000001
      vertex 15.7575556846838 12.577323765729 0.0
      vertex 16.1279740091327 12.6765770566269 0.0
   endloop
endfacet
facet normal 0.258819045102863 -0.965925826288977 0.0
   outer loop
      vertex 15.7575556846838 12.577323765729 0.0
      vertex 16.1279740091327 12.6765770566269 3.00000000000001
      vertex 15.7575556846838 12.577323765729 3.00000000000001
   endloop
endfacet
facet normal 0.96592582628904 0.258819045102628 0.0
   outer loop
      vertex 14.3434229433733 10.1279740091328 0.0
      vertex 14.4426762342713 9.75755568468353 3.00000000000001
      vertex 14.4426762342713 9.75755568468353 0.0
   endloop
endfacet
facet normal 0.96592582628904 0.258819045102628 0.0
   outer loop
      vertex 14.4426762342713 9.75755568468353 3.00000000000001
      vertex 14.3434229433733 10.1279740091328 0.0
      vertex 14.3434229433733 10.1279740091328 3.00000000000001
   endloop
endfacet
facet normal 0.996194698091685 -0.0871557427483472 0.0
   outer loop
      vertex 14.3434229433733 10.8920259908671 0.0
      vertex 14.3099999999999 10.5099999999999 3.00000000000001
      vertex 14.3099999999999 10.5099999999999 0.0
   endloop
endfacet
facet normal 0.996194698091685 -0.0871557427483472 0.0
   outer loop
      vertex 14.3099999999999 10.5099999999999 3.00000000000001
      vertex 14.3434229433733 10.8920259908671 0.0
      vertex 14.3434229433733 10.8920259908671 3.00000000000001
   endloop
endfacet
facet normal 0.996194698091682 0.0871557427483877 0.0
   outer loop
      vertex 14.3099999999999 10.5099999999999 0.0
      vertex 14.3434229433733 10.1279740091328 3.00000000000001
      vertex 14.3434229433733 10.1279740091328 0.0
   endloop
endfacet
facet normal 0.996194698091682 0.0871557427483877 0.0
   outer loop
      vertex 14.3434229433733 10.1279740091328 3.00000000000001
      vertex 14.3099999999999 10.5099999999999 0.0
      vertex 14.3099999999999 10.5099999999999 3.00000000000001
   endloop
endfacet
endsolid extruder-spacer
